<svg xmlns="http://www.w3.org/2000/svg" viewBox="0 0 116.56 114.26"><defs><style>.cls-1,.cls-2,.cls-3{fill:none;stroke:#444;stroke-width:2px;}.cls-1{stroke-miterlimit:10;}.cls-2,.cls-3{stroke-linejoin:round;}.cls-3{stroke-linecap:round;}.cls-4{fill:#fff;}</style></defs><title>businessIcon1_1</title><g id="Layer_2" data-name="Layer 2"><g id="Layer_1-2" data-name="Layer 1"><path class="cls-1" d="M103.56,85.76a6,6,0,0,1-12,0,6,6,0,0,1-12,0,6,6,0,0,1-8,5.65v21.85h40V91.41a6,6,0,0,1-8-5.65Z"/><path class="cls-2" d="M111.56,71.76h-40l-4,14a6,6,0,0,0,12,0,6,6,0,0,0,12,0,6,6,0,0,0,12,0,6,6,0,0,0,12,0Z"/><line class="cls-2" x1="96.56" y1="91.67" x2="96.56" y2="113.26"/><line class="cls-2" x1="81.01" y1="96.26" x2="79.01" y2="106.26"/><line class="cls-2" x1="88.01" y1="96.26" x2="86.01" y2="106.26"/><path class="cls-1" d="M37,85.76a6,6,0,0,1-12,0,6,6,0,0,1-12,0,6,6,0,0,1-8,5.65v21.85H45V91.41a6,6,0,0,1-8-5.65Z"/><path class="cls-2" d="M45,71.76H5l-4,14a6,6,0,0,0,12,0,6,6,0,0,0,12,0,6,6,0,0,0,12,0,6,6,0,0,0,12,0Z"/><line class="cls-2" x1="30" y1="91.67" x2="30" y2="113.26"/><line class="cls-2" x1="14.45" y1="96.26" x2="12.45" y2="106.26"/><line class="cls-2" x1="21.45" y1="96.26" x2="19.45" y2="106.26"/><polyline class="cls-3" points="53.11 11.71 53.11 1 82.28 1 82.28 50.77 61.68 50.77"/><polygon class="cls-3" points="33.29 50.77 33.29 8.41 61.46 14.08 61.46 50.77 33.29 50.77"/><line class="cls-3" x1="30.63" y1="50.77" x2="35.28" y2="50.77"/><line class="cls-3" x1="25" y1="61.4" x2="96.56" y2="61.4"/><line class="cls-3" x1="25" y1="61.4" x2="25" y2="66.54"/><line class="cls-3" x1="96.56" y1="61.4" x2="96.56" y2="66.54"/><line class="cls-3" x1="61.19" y1="54.73" x2="61.19" y2="61.4"/><line class="cls-3" x1="82.28" y1="50.77" x2="85.93" y2="50.77"/><line class="cls-3" x1="76.94" y1="7.13" x2="67.09" y2="7.13"/><line class="cls-3" x1="76.94" y1="14.54" x2="67.09" y2="14.54"/><line class="cls-3" x1="76.94" y1="21.96" x2="67.09" y2="21.96"/><line class="cls-3" x1="76.94" y1="29.37" x2="67.09" y2="29.37"/><line class="cls-3" x1="76.94" y1="36.79" x2="67.09" y2="36.79"/><line class="cls-3" x1="76.94" y1="44.2" x2="67.09" y2="44.2"/><line class="cls-3" x1="43.66" y1="17.98" x2="39.66" y2="17.98"/><line class="cls-3" x1="43.66" y1="24.96" x2="39.66" y2="24.96"/><line class="cls-3" x1="43.66" y1="31.94" x2="39.66" y2="31.94"/><line class="cls-3" x1="43.66" y1="38.93" x2="39.66" y2="38.93"/><line class="cls-3" x1="43.66" y1="45.91" x2="39.66" y2="45.91"/><line class="cls-3" x1="55.12" y1="17.98" x2="51.12" y2="17.98"/><line class="cls-3" x1="55.12" y1="24.96" x2="51.12" y2="24.96"/><line class="cls-3" x1="55.12" y1="31.94" x2="51.12" y2="31.94"/><line class="cls-3" x1="55.12" y1="38.93" x2="51.12" y2="38.93"/><line class="cls-3" x1="55.12" y1="45.91" x2="51.12" y2="45.91"/><path class="cls-4" d="M63.32,61.4a2.13,2.13,0,1,1-2.13-2.13,2.13,2.13,0,0,1,2.13,2.13"/><circle class="cls-3" cx="61.19" cy="61.4" r="2.13"/></g></g></svg>