<svg xmlns="http://www.w3.org/2000/svg" viewBox="0 0 248 231"><defs><style>.cls-1{fill:none;stroke:#444;stroke-miterlimit:10;stroke-width:6px;}</style></defs><title>businessIcon3</title><g id="Layer_2" data-name="Layer 2"><g id="Layer_1-2" data-name="Layer 1"><circle class="cls-1" cx="82.5" cy="210.5" r="17.5"/><circle class="cls-1" cx="202.5" cy="210.5" r="17.5"/><path class="cls-1" d="M225,173H85.38a25,25,0,0,1-24.49-20L32.05,13A12.5,12.5,0,0,0,19.81,3H0"/><path class="cls-1" d="M55,28H232.5a12.5,12.5,0,0,1,12.32,14.64l-15.65,90A12.5,12.5,0,0,1,216.84,143H77.5"/><line class="cls-1" x1="147.5" y1="30.5" x2="147.5" y2="140.5"/><line class="cls-1" x1="197.5" y1="30.5" x2="187.5" y2="140.5"/><line class="cls-1" x1="97.5" y1="30.5" x2="107.5" y2="140.5"/><line class="cls-1" x1="237.5" y1="85.5" x2="70" y2="85.5"/></g></g></svg>