<svg xmlns="http://www.w3.org/2000/svg" viewBox="0 0 49 42.5"><defs><style>.cls-1,.cls-2{fill:none;stroke:#444;}.cls-1{stroke-miterlimit:10;}.cls-2{stroke-linejoin:round;}</style></defs><title>businessIcon2</title><g id="Layer_2" data-name="Layer 2"><g id="Layer_1-2" data-name="Layer 1"><path class="cls-1" d="M36.5,14.5a6,6,0,0,1-12,0,6,6,0,0,1-12,0,6,6,0,0,1-8,5.65V42h40V20.15a6,6,0,0,1-8-5.65Z"/><path class="cls-2" d="M44.5.5H4.5l-4,14a6,6,0,0,0,12,0,6,6,0,0,0,12,0,6,6,0,0,0,12,0,6,6,0,0,0,12,0Z"/><line class="cls-2" x1="29.5" y1="20.41" x2="29.5" y2="42"/><line class="cls-2" x1="13.95" y1="25" x2="11.95" y2="35"/><line class="cls-2" x1="20.95" y1="25" x2="18.95" y2="35"/></g></g></svg>